<?xml version="1.0" encoding="UTF-8" standalone="no"?><svg xmlns="http://www.w3.org/2000/svg" xmlns:xlink="http://www.w3.org/1999/xlink" data-name="Layer 1" fill="#000000" height="521.2" preserveAspectRatio="xMidYMid meet" version="1" viewBox="-21.2 0.0 521.2 521.2" width="521.2" zoomAndPan="magnify"><g fill="#b5790c" id="change1_1"><path d="M362.7867,175.87772c51.57555,70.2964,45.545,169.93734-17.91128,233.39289-70.11693,70.11692-184.0681,70.11692-254.185,0-70.02758-70.0268-70.02758-183.97875.08935-254.09489,63.45632-63.45633,163.09649-69.48762,233.39366-17.91207l27.18314-27.18313c-85.239-66.33562-209.1815-60.30589-287.57969,18.09231C-21.191,213.14149-21.191,351.395,63.68751,436.2735c84.96867,84.96867,223.22213,84.96867,308.1908,0,78.39741-78.39819,84.42792-202.1604,18.09153-287.57891Z"/><path d="M263.14731,198.28975l27.9927-27.9927c-51.84515-33.84373-122.32179-28.17216-167.86683,17.3721-52.11473,52.11474-52.11551,136.90316,0,189.01868,52.11552,52.11473,136.90394,52.11473,189.01868,0A133.80876,133.80876,0,0,0,329.664,209.00047l-27.90335,27.90335a95.53119,95.53119,0,1,1-38.6133-38.61407Z"/><path d="M499.96023,50.94469l-47.34362-3.59951L449.01555,0,404.91093,44.10462l1.80014,23.76232-9.72091-15.84155L369.17771,79.83784l9.12346,21.2513L237.93369,241.45661a45.67624,45.67624,0,1,0,20.64918,20.64918L398.98142,121.70724l21.141,9.07529,27.81245-27.81245-15.84077-9.72092,23.76155,1.80014Z"/></g></svg>