<?xml version="1.0" encoding="UTF-8" standalone="no"?><svg xmlns="http://www.w3.org/2000/svg" xmlns:xlink="http://www.w3.org/1999/xlink" fill="#000000" height="60" preserveAspectRatio="xMidYMid meet" version="1" viewBox="2.0 2.0 60.0 60.0" width="60" zoomAndPan="magnify"><g fill="#b5790c" id="change1_1"><path d="M 32 60 C 16.558594 60 4 47.441406 4 32 C 4 16.558594 16.558594 4 32 4 C 47.441406 4 60 16.558594 60 32 C 60 47.441406 47.441406 60 32 60 Z M 32 2 C 15.457031 2 2 15.457031 2 32 C 2 48.542969 15.457031 62 32 62 C 48.542969 62 62 48.542969 62 32 C 62 15.457031 48.542969 2 32 2" fill="inherit"/><path d="M 40 45 C 28.421875 45 19 35.578125 19 24 C 19 21.242188 21.242188 19 24 19 C 24.867188 19 25.707031 19.21875 26.449219 19.640625 L 27.742188 26.96875 L 23.644531 29.105469 C 23.195312 29.34375 22.992188 29.875 23.171875 30.347656 C 24.996094 35.179688 28.816406 39.003906 33.652344 40.832031 C 34.125 41.011719 34.65625 40.808594 34.890625 40.359375 L 37.03125 36.257812 L 44.359375 37.550781 C 44.78125 38.292969 45 39.136719 45 40 C 45 42.757812 42.757812 45 40 45 Z M 45.148438 35.65625 L 36.660156 34.160156 C 36.234375 34.082031 35.800781 34.292969 35.597656 34.679688 L 33.539062 38.625 C 29.902344 37.015625 26.988281 34.097656 25.378906 30.460938 L 29.320312 28.402344 C 29.707031 28.199219 29.914062 27.769531 29.839844 27.339844 L 28.34375 18.851562 C 28.296875 18.585938 28.144531 18.351562 27.917969 18.199219 C 26.757812 17.414062 25.402344 17 24 17 C 20.140625 17 17 20.140625 17 24 C 17 36.683594 27.316406 47 40 47 C 43.859375 47 47 43.859375 47 40 C 47 38.597656 46.585938 37.242188 45.800781 36.082031 C 45.648438 35.859375 45.414062 35.707031 45.148438 35.65625" fill="inherit"/></g></svg>